<svg version="1.2" xmlns="http://www.w3.org/2000/svg" viewBox="0 0 256 70" width="256" height="70"><style>.a{fill:#e50914}</style><path fill-rule="evenodd" class="a" d="m26.7 0c3.7 0 6.9 0 10.6 0 0 21.9 0 43.2 0 65.1-4.2 0.5-8.5 1-12.2 1.6-5.4-13.4-14.4-36.3-14.4-36.3 0 0 0 22.9 0 37.9 2.1 0-1.1 0-10.7 1.6 0-23 0-46.4 0-69.4 4.3 0 10.7 0 10.7 0l16 39c0 0 0-24.6 0-39.5zm32 10.7c0 5.8 0 10.1 0 16 4.8 0 11.2 0 16 0 0 3.2 0 7.4 0 10.6-4.8 0-11.2 0-16 0 0 5.9 0 9.1 0 15 6.9-1.6 13.3-1.6 19.7-2.2 0 3.2 0 7.5 0 10.7q-15.2 1.6-30.4 3.2 0-32 0-64 15.2 0 30.4 0c0 3.2 0 7.5 0 10.7-2.7 0.5-16.5 0.5-19.7 0zm26.6-10.7c11.2 0 20.8 0 32 0 0 3.2 0 7.5 0 10.7-3.7 0-6.9 0-10.6 0 0 17 0 31.4 0 48.5-3.8 0.5-7 0.5-10.7 0.5 0-17 0-32 0-49-0.5 0-10.1 0-10.7 0 0-3.2 0-7.5 0-10.7zm67.2 10.7c-2.6 0-18.1 0-19.2 0q0 8 0 16c0.6 0 12.8 0 14.4 0 0 3.2 0 7.4 0 10.6-1.6 0-13.8 0-14.4 0 0 8.6 0 12.8 0 21.4-2.6 0-5.3 0-7.4 0q-1.6 0-3.2 0c0-20.3 0-38.4 0-58.7 10.1 0 19.7 0 29.8 0 0 3.2 0 8 0 10.7zm36.3 41c0 3.2 0 7 0 10.2-9.6-1.1-19.2-1.6-28.8-2.2 0-20.2 0-39.4 0-59.7 3.7 0 6.9 0 10.7 0 0 17.6 0 33.1 0 50.7 5.8 0 12.2 0.5 18.1 1zm8.5-51.7c3.8 0 7 0 10.7 0 0 21.3 0 42.1 0 63.5-3.7-0.6-6.9-0.6-10.7-1.1 0-20.8 0-41.1 0-62.4zm59.2 69.9c-3.7-0.6-8.5-1.1-12.2-1.6-2.7-7.5-5.4-12.8-8-20.3-2.7 6.9-5.4 11.7-8 18.7q-5.6-0.8-11.2-1.6c4.8-10.7 9-21.4 13.8-32-4.8-11.2-8.5-21.9-12.8-32.6 3.8 0 8 0 11.8 0 2.6 6.4 4.2 11.2 6.9 18.2 2.7-6.4 4.8-11.2 7.5-18.2 3.7 0 8 0 11.7 0-4.8 11.2-9.1 21.9-13.9 32.6 4.3 11.2 9.1 24 14.4 36.8z"/></svg>